<svg width="18" height="18" viewBox="0 0 18 18" fill="none" xmlns="http://www.w3.org/2000/svg">
<path d="M9 2.94356e-06C11.755 2.94356e-06 14.455 0.232003 17.083 0.678003C17.616 0.768003 18 1.234 18 1.774V2.818C18 3.11348 17.9418 3.40606 17.8287 3.67904C17.7157 3.95203 17.5499 4.20007 17.341 4.409L11.909 9.841C11.7001 10.0499 11.5343 10.298 11.4213 10.571C11.3082 10.8439 11.25 11.1365 11.25 11.432V14.359C11.2501 14.777 11.1337 15.1867 10.914 15.5423C10.6943 15.8978 10.3799 16.1851 10.006 16.372L6.75 18V11.432C6.75 11.1365 6.69181 10.8439 6.57874 10.571C6.46566 10.298 6.29993 10.0499 6.091 9.841L0.659 4.409C0.450069 4.20007 0.284336 3.95203 0.171265 3.67904C0.0581932 3.40606 -2.55868e-06 3.11348 0 2.818V1.774C0 1.234 0.384 0.768003 0.917 0.678003C3.58757 0.225856 6.29143 -0.000942483 9 2.94356e-06Z" fill="#6C757D"/>
</svg>
