<svg width="337" height="100" viewBox="0 0 337 100" fill="none" xmlns="http://www.w3.org/2000/svg">
<path d="M76.5625 87.5C77.4219 87.5 78.125 88.2 78.125 89.0625C78.125 89.925 78.125 93.75 78.125 93.75H18.75C18.75 93.75 18.75 89.925 18.75 89.0625C18.75 88.2 19.45 87.5 20.3125 87.5H25.5312C25.7906 66.6937 39.3813 59.9875 39.3813 51.5781C39.3813 43.125 25.5406 42.5625 25.4094 15.625H20.3125C19.45 15.625 18.75 14.925 18.75 14.0625C18.75 13.2 18.75 9.375 18.75 9.375H78.125C78.125 9.375 78.125 13.2 78.125 14.0625C78.125 14.925 77.4219 15.625 76.5625 15.625H71.7812C71.65 42.5625 57.8094 43.125 57.8094 51.5781C57.8094 59.9875 71.4031 66.6937 71.6625 87.5H76.5625ZM53.4719 51.5781C53.4719 43.0906 67.3156 42.5625 67.4438 15.625H29.7469C29.875 42.5625 43.7188 43.0906 43.7188 51.5781C43.7188 59.7375 30.1219 66.6156 29.8656 87.5H32.2344C32.7906 85.6469 34.6375 83.4188 37.8281 81.7688L41.975 79.6531C44.5813 78.3063 46.1438 77.3969 46.6625 76.9281C47.1812 76.4594 47.7688 75.4094 48.425 73.7781C49.1156 75.4062 49.7062 76.4563 50.2062 76.9281C50.7062 77.4 52.25 78.3063 54.8437 79.6531L58.9688 81.7688C62.1406 83.4188 63.9813 85.6469 64.5281 87.5H67.3219C67.0656 66.6156 53.4719 59.7375 53.4719 51.5781ZM50.2188 46.9906C49.8438 47.7281 49.5281 49.1313 49.2781 51.2C49.2156 51.825 49.0781 52.7656 48.8562 54.0187C48.6375 52.7656 48.4969 51.825 48.4344 51.2C48.1812 49.1313 47.8656 47.7313 47.4875 46.9906C47.1094 46.2562 46.0437 44.9344 44.2844 43.0187L40.375 38.7437C37.7031 35.8625 35.9906 33.7937 35.2375 32.5437C39.875 35.4969 44.4031 36.975 48.8219 36.975C53.2406 36.975 57.7844 35.4969 62.4531 32.5437C61.6719 33.7937 59.9531 35.8625 57.3 38.7437L53.4062 43.0187C51.6562 44.9344 50.5906 46.2562 50.2188 46.9906Z" fill="black"/>
<path d="M131.992 37.376C131.907 38.144 131.864 38.9333 131.864 39.744C131.864 41.28 131.779 42.6667 131.608 43.904C131.437 45.1413 131.331 45.9947 131.288 46.464C131.245 46.8907 131.181 47.3173 131.096 47.744V48.192C131.096 48.96 130.925 49.728 130.584 50.496L130.392 53.376L130.136 59.456V62.656C130.136 64.2773 130.051 65.152 129.88 65.28L129.944 66.944V67.648L129.88 68.416C129.88 68.5867 129.837 68.672 129.752 68.672C129.837 69.184 129.624 69.7387 129.112 70.336C128.643 70.8907 128.045 71.2533 127.32 71.424L126.168 71.616C125.997 71.616 125.763 71.6373 125.464 71.68C125.165 71.68 124.909 71.6373 124.696 71.552C124.483 71.4667 124.269 71.36 124.056 71.232C123.629 70.976 123.331 70.4853 123.16 69.76C123.032 69.5467 122.776 68.2453 122.392 65.856C122.392 65.344 122.349 64.704 122.264 63.936L122.456 62.4V61.184C122.456 60.416 122.541 59.8827 122.712 59.584C122.541 59.328 122.648 58.7733 123.032 57.92C122.733 57.536 122.755 56.6827 123.096 55.36C122.925 54.8053 122.925 54.4427 123.096 54.272C123.181 54.016 123.224 53.4187 123.224 52.48L123.288 51.84C123.288 50.6027 123.416 49.472 123.672 48.448C123.587 48.32 123.587 47.9787 123.672 47.424C123.757 46.8693 123.821 46.208 123.864 45.44V44.992C123.907 44.352 123.928 43.6693 123.928 42.944L123.992 42.368C123.992 42.112 124.035 41.6 124.12 40.832C124.248 40.064 124.355 39.2533 124.44 38.4H124.312C119.789 39.6373 117.016 40.256 115.992 40.256L114.904 40.32C114.264 40.32 113.603 40.2133 112.92 40C112.579 39.8293 112.323 39.3813 112.152 38.656C112.152 37.248 112.451 36.224 113.048 35.584C113.688 34.944 114.861 34.3467 116.568 33.792C116.995 33.7493 119.64 32.8533 124.504 31.104L127.256 30.464C127.768 30.2933 128.579 30.208 129.688 30.208C130.797 30.208 131.715 30.08 132.44 29.824C133.208 29.5253 134.04 29.312 134.936 29.184C135.832 29.0133 136.771 28.8427 137.752 28.672C138.221 28.5013 139.075 28.544 140.312 28.8C140.781 28.8 141.528 29.2907 142.552 30.272L142.936 31.168C142.936 31.424 143 31.616 143.128 31.744C143.299 32.896 143.043 33.6427 142.36 33.984C142.104 34.112 141.656 34.2827 141.016 34.496C140.163 34.496 138.029 34.9227 134.616 35.776C134.445 35.776 133.592 35.904 132.056 36.16L131.992 36.992V37.376ZM150.982 53.632C150.939 52.6933 150.726 51.9893 150.342 51.52C149.958 51.008 149.254 50.7093 148.23 50.624C147.931 50.8373 147.526 51.5627 147.014 52.8C146.545 53.9947 146.246 55.2747 146.118 56.64C145.691 58.688 145.478 60.736 145.478 62.784C145.521 64.8747 145.862 66.4107 146.502 67.392C146.587 67.5627 146.673 67.6267 146.758 67.584C146.971 67.584 147.313 67.1573 147.782 66.304C150.043 62.208 151.11 57.984 150.982 53.632ZM152.966 65.856L152.006 68.352C152.006 68.4373 151.387 69.3547 150.15 71.104C149.766 71.9147 149.041 72.3627 147.974 72.448C146.95 72.5333 145.947 72.4267 144.966 72.128C143.643 71.6587 142.641 71.104 141.958 70.464C141.275 69.824 140.593 68.7573 139.91 67.264C139.27 65.728 138.929 64.4693 138.886 63.488C138.673 62.08 138.566 61.184 138.566 60.8V59.264C138.566 57.728 138.63 56.832 138.758 56.576C138.801 56.4053 138.907 55.9573 139.078 55.232C139.291 53.44 139.803 51.7333 140.614 50.112C142.193 46.9973 143.814 45.3973 145.478 45.312H145.798C145.883 45.3547 146.011 45.376 146.182 45.376H147.014C148.507 45.504 149.425 45.632 149.766 45.76C150.406 45.9307 150.961 46.016 151.43 46.016L153.094 46.336C153.606 46.2933 154.267 46.4 155.078 46.656C155.931 46.912 156.379 47.104 156.422 47.232C156.507 47.36 156.635 47.8293 156.806 48.64C156.977 49.4507 157.083 50.048 157.126 50.432C157.211 50.7733 157.275 51.136 157.318 51.52C157.659 54.6347 158.214 57.536 158.982 60.224C159.025 60.352 159.067 60.544 159.11 60.8C159.153 61.056 159.302 61.568 159.558 62.336C159.814 63.0613 160.006 63.68 160.134 64.192C160.262 64.704 160.497 65.3867 160.838 66.24C161.094 66.88 161.478 67.6267 161.99 68.48C162.929 69.8027 162.438 70.8267 160.518 71.552C160.262 71.6373 159.814 71.68 159.174 71.68C159.046 71.68 158.641 71.4667 157.958 71.04C157.531 71.04 157.126 70.8053 156.742 70.336L156.23 70.208C155.931 69.9093 155.675 69.76 155.462 69.76C155.377 69.6747 154.609 67.9467 153.158 64.576C153.03 65.0453 152.966 65.472 152.966 65.856ZM168.305 47.168C169.457 45.76 171.035 45.0133 173.041 44.928C176.326 44.8 178.758 45.6107 180.337 47.36C181.958 49.1093 182.811 50.8373 182.897 52.544C183.025 54.2507 182.598 55.168 181.617 55.296C180.209 55.3387 179.291 55.1467 178.865 54.72C178.481 54.7627 177.99 54.4853 177.393 53.888C177.137 53.76 176.795 53.2693 176.369 52.416L175.665 50.816C175.323 50.048 174.897 49.6213 174.385 49.536C173.745 49.792 173.425 50.432 173.425 51.456C173.595 53.4613 174.555 55.3813 176.305 57.216C176.305 57.216 176.326 57.28 176.369 57.408C176.454 57.4933 176.774 57.8347 177.329 58.432C180.699 62.144 182.449 65.1307 182.577 67.392C182.577 68.8427 182.278 69.8027 181.681 70.272C179.846 72.448 177.457 73.5787 174.513 73.664C171.569 73.7493 169.137 72.832 167.217 70.912C166.705 70.4 166.449 69.9093 166.449 69.44C166.193 68.6293 166.107 68.096 166.193 67.84C166.065 66.6453 166.065 65.7493 166.193 65.152C166.449 63.7867 167.451 63.0827 169.201 63.04C169.841 63.04 170.246 63.424 170.417 64.192C170.971 66.368 171.483 67.7973 171.953 68.48C172.465 69.1627 173.275 69.4827 174.385 69.44C175.793 69.3547 176.454 68.5653 176.369 67.072C176.326 65.5787 175.622 64.192 174.257 62.912C173.83 62.4 173.403 62.016 172.977 61.76C172.593 61.4613 172.337 61.248 172.209 61.12C172.166 60.992 172.059 60.864 171.889 60.736C171.035 60.0533 169.947 58.9227 168.625 57.344C167.345 55.7653 166.662 54.2933 166.577 52.928C166.406 50.496 166.982 48.576 168.305 47.168ZM189.671 33.024C189.671 32.896 189.692 32.7467 189.735 32.576V30.528C189.777 30.4 189.799 30.2293 189.799 30.016C189.799 29.76 189.841 29.5467 189.927 29.376C189.927 28.8213 190.161 28.3093 190.631 27.84C190.801 27.4987 191.036 27.2853 191.335 27.2C191.889 26.9867 192.956 27.1573 194.535 27.712C194.492 27.6693 194.535 27.6907 194.663 27.776C194.833 27.8187 194.94 27.84 194.983 27.84C195.409 27.8827 195.772 28.2667 196.071 28.992C196.071 29.4613 196.156 30.9973 196.327 33.6C196.497 36.2027 196.519 38.336 196.391 40V40.64C196.263 43.8827 196.199 46.6133 196.199 48.832C196.113 49.088 196.113 49.3653 196.199 49.664C196.113 50.176 196.071 51.4133 196.071 53.376L196.583 52.672L196.903 52.032C196.903 51.904 196.988 51.7547 197.159 51.584C197.329 51.3707 197.436 51.2213 197.479 51.136C197.521 51.008 197.585 50.9013 197.671 50.816C197.756 50.688 197.82 50.5813 197.863 50.496C197.948 50.368 198.183 50.176 198.567 49.92C198.567 49.792 198.801 49.5147 199.271 49.088L202.215 45.376L203.878 44.224C204.049 43.968 204.476 43.7547 205.159 43.584C205.884 43.3707 206.545 43.2853 207.143 43.328C207.783 42.944 208.721 43.1573 209.959 43.968C210.599 44.5653 210.62 45.312 210.023 46.208C208.956 47.7867 208.316 48.704 208.103 48.96L205.351 52.8L204.583 54.016C203.089 55.936 202.151 57.088 201.767 57.472C201.425 57.8133 201.276 58.112 201.319 58.368C201.873 58.9227 202.343 59.2853 202.727 59.456C202.897 59.6693 203.047 59.8613 203.175 60.032C203.345 60.16 203.431 60.2453 203.431 60.288L206.503 63.36C208.081 65.0667 209.255 66.4747 210.023 67.584L212.967 70.848C213.692 71.2747 214.055 71.7227 214.055 72.192C214.055 72.6613 213.649 73.0667 212.839 73.408C212.583 73.664 211.793 73.728 210.471 73.6C209.575 73.7707 208.913 73.7493 208.487 73.536C207.292 73.4933 206.14 73.088 205.031 72.32C204.305 71.7653 203.943 71.36 203.943 71.104C203.729 70.8053 203.516 70.5493 203.303 70.336C203.047 69.9947 202.833 69.6747 202.663 69.376C202.321 69.2053 201.895 68.6507 201.383 67.712C200.999 67.456 200.807 67.3067 200.807 67.264C200.807 67.1787 200.679 67.0293 200.423 66.816C200.167 66.6027 199.996 66.4747 199.911 66.432C199.911 66.2613 199.548 65.728 198.823 64.832C198.567 64.704 198.353 64.5333 198.183 64.32C198.055 64.064 198.012 63.936 198.055 63.936L196.839 62.4L196.327 61.632C196.327 64.8747 196.647 68.1387 197.287 71.424C197.372 72.1067 197.415 72.512 197.415 72.64C197.457 72.768 197.479 72.8747 197.479 72.96C197.521 73.088 197.543 73.1733 197.543 73.216L197.095 73.024C197.223 73.1093 197.351 73.344 197.479 73.728C197.607 74.112 197.649 74.368 197.607 74.496C197.223 74.9227 196.967 75.2 196.839 75.328C196.753 75.456 196.476 75.5413 196.007 75.584C195.58 75.6267 195.345 75.5627 195.303 75.392C194.535 75.008 194.087 74.752 193.959 74.624C193.703 74.5813 193.191 74.368 192.423 73.984C192.38 73.8133 192.316 73.6853 192.231 73.6C191.847 73.344 191.548 73.024 191.335 72.64C191.164 72.5547 190.972 72.256 190.759 71.744C190.375 71.0187 190.183 70.2293 190.183 69.376C190.097 69.0347 190.033 68.8427 189.991 68.8C189.948 68.7573 189.927 68.5867 189.927 68.288L189.735 66.624C189.607 66.1547 189.585 65.7493 189.671 65.408L189.351 64.384L189.223 62.144L189.351 61.248C189.095 60.864 189.073 60.3093 189.286 59.584V59.2C189.244 59.1147 189.201 58.7307 189.159 58.048C189.116 57.3653 189.116 56.96 189.159 56.832C189.201 56.704 189.223 56.5547 189.223 56.384C189.137 55.7867 189.095 55.2533 189.095 54.784V54.08C188.881 49.8133 188.775 47.6373 188.775 47.552V45.76C188.732 45.4613 188.753 44.7573 188.839 43.648C188.967 42.5387 189.009 41.6427 188.967 40.96C188.967 40.2773 189.009 39.8507 189.095 39.68C189.095 39.296 189.137 38.912 189.223 38.528V37.824C189.265 37.696 189.308 37.2907 189.351 36.608L189.671 33.024ZM216.994 51.328C216.994 51.2853 217.079 50.9227 217.25 50.24C217.122 49.728 217.207 49.1947 217.506 48.64C217.506 47.9573 217.612 47.3387 217.826 46.784C218.167 46.5707 218.274 46.2293 218.146 45.76C218.146 45.504 218.231 45.184 218.402 44.8C218.572 44.416 218.658 43.9467 218.658 43.392C218.743 43.2213 218.807 42.9867 218.85 42.688C218.935 42.3467 219.042 41.984 219.17 41.6C219.298 41.1733 219.426 40.64 219.554 40L219.874 39.168C220.172 38.784 220.322 38.3787 220.322 37.952L220.834 36.928C220.834 36.544 221.047 36.0747 221.474 35.52C221.858 35.136 222.114 34.752 222.242 34.368C222.455 33.728 223.052 33.088 224.034 32.448C224.162 32.3627 224.674 32.2133 225.57 32C226.508 31.744 227.063 31.6373 227.234 31.68C227.447 31.68 227.682 31.7227 227.938 31.808C228.194 31.8507 228.407 31.9147 228.578 32C228.791 32.0427 229.047 32.128 229.346 32.256C229.644 32.3413 229.879 32.4053 230.05 32.448L230.753 33.024C230.753 33.0667 230.775 33.1093 230.818 33.152C231.244 33.5787 231.458 34.3253 231.458 35.392V36.8C231.415 37.2267 231.394 37.7387 231.394 38.336V39.488C231.394 40 231.415 40.3627 231.458 40.576L231.394 42.048C231.436 42.432 231.436 42.88 231.394 43.392C231.351 43.8613 231.33 44.288 231.33 44.672C231.372 45.0133 231.372 45.504 231.33 46.144C231.415 46.1867 231.458 46.72 231.458 47.744C231.458 48.7253 231.415 49.472 231.33 49.984V51.712C231.415 52.1387 231.436 53.248 231.394 55.04C231.479 55.4667 231.5 55.7653 231.458 55.936C231.628 58.0693 231.714 59.2853 231.714 59.584C231.756 59.8827 231.82 60.1813 231.906 60.48C231.991 60.736 232.055 61.12 232.098 61.632C232.14 62.1013 232.204 62.4213 232.29 62.592C232.375 62.72 232.524 62.7413 232.738 62.656C232.951 62.5707 233.143 62.272 233.314 61.76L233.762 60.864C233.89 60.1387 234.082 59.6053 234.338 59.264C234.338 59.136 234.487 58.7307 234.786 58.048C234.914 58.048 235.084 57.8133 235.298 57.344C235.554 56.8747 235.746 56.4267 235.874 56C236.172 55.488 236.322 55.1253 236.322 54.912C237.431 51.968 238.114 50.2187 238.37 49.664L238.626 48.64C239.01 47.9147 239.287 47.104 239.458 46.208C239.671 45.8667 239.842 45.44 239.97 44.928C240.14 44.3733 240.268 44.032 240.354 43.904C240.354 43.6053 240.759 42.304 241.57 40C241.698 39.9147 241.804 39.7013 241.89 39.36C241.975 39.0187 242.252 38.2507 242.722 37.056C242.892 36.2453 243.127 35.52 243.426 34.88C244.023 33.6427 244.876 32.64 245.986 31.872C245.986 31.616 246.327 31.4453 247.01 31.36C247.735 31.232 248.204 31.3173 248.418 31.616C248.46 31.6587 248.674 31.7227 249.058 31.808C249.442 31.8507 249.911 32.0427 250.466 32.384C251.063 32.7253 251.426 33.1733 251.554 33.728C251.426 33.8133 251.319 34.4107 251.234 35.52C251.191 36.5867 251.148 37.2907 251.106 37.632V40.128L251.042 41.728V49.152C250.999 49.408 250.978 49.984 250.978 50.88V53.632L251.042 57.856C251.042 58.624 251.063 59.2 251.106 59.584V63.04C251.106 63.6373 251.17 64.1067 251.298 64.448C251.255 64.6613 251.298 65.536 251.426 67.072C251.682 68.224 251.724 68.8853 251.554 69.056C251.468 69.9093 251.106 70.7413 250.466 71.552C250.252 71.7653 249.911 71.8933 249.442 71.936C248.375 72.0213 247.18 71.2747 245.858 69.696C245.218 68.8 244.791 68.1173 244.578 67.648C244.492 67.648 244.3 67.3707 244.002 66.816C243.916 66.816 243.852 66.5173 243.81 65.92C243.767 65.92 243.532 64.128 243.106 60.544V59.328C243.148 58.7307 243.212 58.2613 243.298 57.92C243.383 57.536 243.404 57.0027 243.362 56.32C243.447 56.064 243.49 55.7013 243.49 55.232V54.144C243.532 54.1013 243.575 53.696 243.618 52.928C243.66 52.16 243.66 51.6053 243.618 51.264C243.618 50.9227 243.618 50.56 243.618 50.176C243.66 49.792 243.682 49.5573 243.682 49.472L243.746 48.64C243.746 48.256 243.66 47.8933 243.49 47.552L242.914 49.472C242.914 49.7707 242.658 50.5387 242.146 51.776C241.634 53.0133 241.378 53.6747 241.378 53.76C241.292 53.8453 241.143 54.208 240.93 54.848C240.759 55.488 240.482 56.3627 240.098 57.472C240.098 57.856 239.884 58.4747 239.458 59.328C239.458 59.6267 239.159 60.5227 238.562 62.016C237.964 63.5947 237.538 64.896 237.282 65.92C237.068 66.9013 236.684 67.904 236.13 68.928C236.044 69.3547 235.895 69.7173 235.682 70.016C235.255 70.8267 234.615 71.0827 233.762 70.784L232.802 70.656C232.674 70.6987 232.375 70.656 231.906 70.528C231.82 70.6133 231.458 70.6133 230.818 70.528C229.196 69.9733 228.279 69.696 228.066 69.696C227.468 69.696 226.935 69.2267 226.466 68.288C226.38 67.8613 226.274 67.392 226.146 66.88C225.847 65.6 225.655 64.4907 225.57 63.552C225.655 63.4667 225.591 62.464 225.378 60.544L225.314 57.216C225.186 57.088 225.186 56.768 225.314 56.256C225.314 56 225.335 55.7013 225.378 55.36C225.292 54.9333 225.292 54.3573 225.378 53.632C225.292 52.9067 225.25 52.4373 225.25 52.224C225.292 51.968 225.292 51.6693 225.25 51.328C225.25 50.944 225.292 50.3253 225.378 49.472C225.335 49.3867 225.25 49.0453 225.122 48.448C225.036 47.8507 224.951 47.424 224.866 47.168C224.866 47.2107 224.738 47.4453 224.482 47.872C224.396 48.0853 224.119 48.9173 223.65 50.368C223.65 51.2213 223.607 51.712 223.522 51.84C223.479 51.968 223.415 52.224 223.33 52.608L222.818 55.296C222.818 55.5093 222.647 56.128 222.306 57.152L221.345 60.352C221.388 60.352 221.41 60.3733 221.41 60.416C221.41 60.416 221.367 60.8 221.282 61.568C221.196 61.6533 220.983 62.464 220.642 64C220.386 64.768 220.194 65.9413 220.066 67.52C219.938 69.056 219.831 69.9733 219.746 70.272C219.703 70.5707 219.682 70.9333 219.682 71.36C219.682 72.1707 219.49 72.768 219.106 73.152C218.807 73.7493 218.06 74.0907 216.866 74.176C215.372 73.8347 214.498 73.3227 214.242 72.64C214.114 72.1707 213.964 71.8293 213.794 71.616C213.58 70.8907 213.495 70.2933 213.538 69.824C213.794 67.264 214.007 65.984 214.178 65.984C214.22 65.856 214.242 65.536 214.242 65.024C214.114 64.64 214.22 64.192 214.562 63.68C214.519 63.3813 214.604 63.0187 214.818 62.592C214.988 62.592 215.01 62.08 214.882 61.056C214.882 60.8427 215.01 60.3947 215.266 59.712C215.266 59.5413 215.287 59.328 215.33 59.072C215.415 58.7733 215.479 58.4533 215.522 58.112C215.607 57.2587 215.735 56.6827 215.906 56.384C215.735 55.744 216.034 54.4427 216.802 52.48L216.994 51.328ZM271.381 55.296C271.424 55.168 271.509 54.4213 271.637 53.056C271.552 52.928 271.445 52.4587 271.317 51.648C270.976 50.9653 270.528 50.4533 269.973 50.112C269.29 49.8133 268.885 49.664 268.757 49.664C268.373 49.792 268.096 49.9413 267.925 50.112C267.797 50.24 267.434 50.8373 266.837 51.904C266.282 52.9707 265.813 54.7413 265.429 57.216C265.088 59.6907 264.917 61.4827 264.917 62.592C264.917 63.7013 264.96 65.0667 265.045 66.688C265.13 68.2667 265.472 69.0133 266.069 68.928C266.624 68.8427 267.392 67.3067 268.373 64.32C268.416 64.1067 268.565 63.7227 268.821 63.168L271.381 55.296ZM278.869 52.672C278.869 54.9333 279.104 57.0027 279.573 58.88C279.786 60.7573 280.17 62.7627 280.725 64.896C280.853 65.7493 280.896 66.176 280.853 66.176C281.92 68.5227 282.517 69.9307 282.645 70.4C282.773 70.8267 282.752 71.1893 282.581 71.488V71.424C282.453 71.808 282.048 72.1493 281.365 72.448C280.725 72.7893 280.149 73.0027 279.637 73.088C278.016 73.6 277.056 72.9813 276.757 71.232C276.586 71.104 276.33 70.848 275.989 70.464C275.69 70.0373 275.52 69.696 275.477 69.44C275.434 69.1413 275.285 68.864 275.029 68.608C274.944 68.3947 274.752 68.1173 274.453 67.776C274.154 67.4347 273.984 67.0933 273.941 66.752L273.749 65.024L273.621 64.96C272.938 66.368 272.49 67.3493 272.277 67.904C271.765 69.3547 270.869 71.0187 269.589 72.896C268.138 74.5173 266.368 74.9867 264.277 74.304C263.509 74.2613 262.89 74.0267 262.421 73.6C261.994 73.1733 261.696 72.9387 261.525 72.896C261.269 72.8107 260.906 72.4907 260.437 71.936C259.669 70.912 259.2 69.3973 259.029 67.392V65.728C259.157 65.5147 259.157 64.4907 259.029 62.656V62.272C258.773 60.992 258.645 60.224 258.645 59.968C258.645 59.712 258.688 59.3707 258.773 58.944C258.858 58.5173 258.88 58.2613 258.837 58.176C258.794 58.048 258.773 57.856 258.773 57.6V56.64L259.093 53.184C259.562 51.6907 260.074 50.3467 260.629 49.152C260.8 48.4267 261.12 47.8507 261.589 47.424C262.656 46.272 263.232 45.6107 263.317 45.44C263.616 44.8 264.725 44.288 266.645 43.904L267.733 43.968C268.16 43.968 268.544 44.032 268.885 44.16C269.226 44.2453 269.461 44.288 269.589 44.288C270.186 44.5867 270.677 44.736 271.061 44.736C271.445 44.736 272.085 45.0347 272.981 45.632C273.237 45.6747 273.877 46.0373 274.901 46.72C276.01 47.4453 276.65 47.8507 276.821 47.936L278.485 48.512C278.954 48.896 279.189 49.1093 279.189 49.152C279.189 49.1947 279.082 50.368 278.869 52.672ZM284.707 46.912C284.579 46.272 284.494 45.9093 284.451 45.824C284.238 45.3973 284.131 45.0133 284.131 44.672C284.131 44.3307 284.11 44.16 284.067 44.16C284.152 43.1787 284.536 42.4533 285.219 41.984C285.902 41.472 286.862 41.344 288.099 41.6L290.147 42.368L293.091 43.072L294.563 38.848C294.947 38.1653 295.139 37.696 295.139 37.44C295.182 37.184 295.267 36.9067 295.395 36.608C295.566 36.0107 295.736 35.5627 295.907 35.264L296.163 34.24C296.462 33.6853 297.059 33.3227 297.955 33.152C298.467 32.9387 298.915 32.9387 299.299 33.152C300.451 33.1947 301.326 33.6213 301.923 34.432C301.923 34.6453 301.859 34.9867 301.731 35.456C301.603 35.9253 301.496 36.544 301.411 37.312L299.811 43.712H300.323L301.923 43.648C302.136 43.6907 302.371 43.712 302.627 43.712C303.566 43.4987 304.291 43.3707 304.803 43.328C305.315 43.2427 305.656 43.1787 305.827 43.136C305.955 43.1787 306.318 43.1787 306.915 43.136C307.512 43.0933 308.131 43.2853 308.771 43.712C309.411 44.096 309.731 44.5867 309.731 45.184C309.731 45.7387 309.326 46.2293 308.515 46.656L307.939 47.424C307.256 47.68 306.659 47.9787 306.147 48.32C305.55 48.6613 303.096 49.2373 298.787 50.048L298.339 53.312C298.424 53.5253 298.467 53.696 298.467 53.824C298.168 55.6587 297.912 57.9413 297.699 60.672C297.742 61.6533 297.763 62.3147 297.763 62.656V64.384C297.72 64.4693 297.699 64.7467 297.699 65.216C297.699 66.2827 297.827 67.5413 298.083 68.992C298.339 70.4 298.488 71.2533 298.531 71.552C298.574 71.8507 298.595 72.192 298.595 72.576C298.552 73.3013 298.254 73.7707 297.699 73.984C296.334 73.984 295.182 73.7493 294.243 73.28C293.475 73.152 293.134 72.9813 293.219 72.768C292.92 72.5547 292.579 72.1493 292.195 71.552C292.195 71.2107 292.174 71.0187 292.131 70.976C291.832 70.848 291.683 70.5067 291.683 69.952C291.64 69.9093 291.598 69.76 291.555 69.504L291.107 67.904C290.723 67.392 290.595 66.7093 290.723 65.856C290.723 65.6853 290.659 65.472 290.531 65.216V64.768C290.531 64.4267 290.552 64.1707 290.595 64C290.382 62.8053 290.403 61.3973 290.659 59.776C290.915 58.112 291.086 56.9173 291.171 56.192C291.086 55.9787 291.128 55.7013 291.299 55.36C291.299 54.976 291.384 54.3787 291.555 53.568L292.131 49.92C291.875 49.8347 291.619 49.792 291.363 49.792C289.102 49.28 287.928 48.96 287.843 48.832L287.075 48.384C286.776 48.384 286.35 48.2347 285.795 47.936C285.24 47.5947 284.878 47.2533 284.707 46.912ZM321.604 51.52V50.816C321.604 50.3467 321.583 50.112 321.54 50.112L321.156 49.984C320.857 49.984 320.623 49.9413 320.452 49.856C320.153 49.9413 319.919 50.0693 319.748 50.24C319.193 50.5813 318.809 50.9867 318.596 51.456L317.188 54.272C316.548 55.5947 316.185 57.3013 316.1 59.392C317.209 59.8613 318.02 59.84 318.532 59.328C318.831 59.072 319.087 58.7733 319.3 58.432C319.385 58.1333 319.556 57.856 319.812 57.6C320.068 57.3013 320.324 56.5973 320.58 55.488C321.263 54.4213 321.604 53.0987 321.604 51.52ZM327.3 52.416V53.12C327.215 55.7227 326.447 58.0693 324.996 60.16C324.783 60.4587 324.484 60.8 324.1 61.184L322.692 62.592C322.393 62.8907 322.009 63.168 321.54 63.424L320.132 63.808C320.004 63.7227 319.641 63.6373 319.044 63.552C318.575 63.7227 318.169 63.68 317.828 63.424C317.785 63.424 317.551 63.3387 317.124 63.168C316.74 62.9973 316.249 62.8907 315.652 62.848C315.737 63.5307 315.78 64.2773 315.78 65.088L316.548 68.032C317.017 68.928 317.465 69.504 317.892 69.76C318.361 69.9733 318.852 70.1013 319.364 70.144C319.919 70.144 320.324 70.08 320.58 69.952C320.879 69.824 321.369 69.632 322.052 69.376L323.332 68.736C324.228 68.224 324.996 68.352 325.636 69.12C325.977 69.504 326.127 70.016 326.084 70.656C326.041 71.2533 325.785 71.808 325.316 72.32C325.06 72.9173 324.399 73.472 323.332 73.984C323.289 73.984 323.097 74.0693 322.756 74.24C320.836 75.1787 318.703 75.3067 316.356 74.624L315.14 74.048C315.012 74.048 314.884 73.984 314.756 73.856C314.244 73.728 313.689 73.408 313.092 72.896C312.495 72.384 312.068 71.9573 311.812 71.616C311.599 71.2747 311.449 71.04 311.364 70.912C311.279 70.784 311.129 70.5067 310.916 70.08C310.191 68.7147 309.657 67.4133 309.316 66.176L308.932 64.32C309.017 64.1493 309.039 63.6587 308.996 62.848V61.824C308.612 61.1413 308.847 59.584 309.7 57.152C310.383 53.9093 310.937 52.0107 311.364 51.456L312.196 49.792C312.196 49.7493 312.452 49.4293 312.964 48.832C313.049 48.6187 313.54 48.192 314.436 47.552C314.607 47.296 314.863 47.1467 315.204 47.104C315.375 46.9333 315.652 46.784 316.036 46.656C316.377 46.3573 316.889 46.1653 317.572 46.08C318.212 45.8667 319.193 45.8027 320.516 45.888C323.545 46.144 325.615 47.424 326.724 49.728L327.172 51.136C327.172 51.3493 327.236 51.6053 327.364 51.904C327.321 51.9893 327.3 52.16 327.3 52.416Z" fill="black"/>
</svg>
