<svg width="25" height="26" viewBox="0 0 25 26" fill="none" xmlns="http://www.w3.org/2000/svg">
<path d="M22.9167 13C22.9167 7.2604 18.2396 2.58331 12.5 2.58331C6.76046 2.58331 2.08337 7.2604 2.08337 13C2.08337 16.0208 3.38546 18.7396 5.44796 20.6458C5.44796 20.6562 5.44796 20.6562 5.43754 20.6666C5.54171 20.7708 5.66671 20.8541 5.77087 20.9479C5.83337 21 5.88546 21.0521 5.94796 21.0937C6.13546 21.25 6.34379 21.3958 6.54171 21.5416C6.61462 21.5937 6.67712 21.6354 6.75004 21.6875C6.94796 21.8229 7.15629 21.9479 7.37504 22.0625C7.44796 22.1041 7.53129 22.1562 7.60421 22.1979C7.81254 22.3125 8.03129 22.4166 8.26046 22.5104C8.34379 22.5521 8.42712 22.5937 8.51046 22.625C8.73962 22.7187 8.96879 22.8021 9.19796 22.875C9.28129 22.9062 9.36462 22.9375 9.44796 22.9583C9.69796 23.0312 9.94796 23.0937 10.198 23.1562C10.2709 23.1771 10.3438 23.1979 10.4271 23.2083C10.7188 23.2708 11.0105 23.3125 11.3125 23.3437C11.3542 23.3437 11.3959 23.3541 11.4375 23.3646C11.7917 23.3958 12.1459 23.4166 12.5 23.4166C12.8542 23.4166 13.2084 23.3958 13.5521 23.3646C13.5938 23.3646 13.6355 23.3541 13.6771 23.3437C13.9792 23.3125 14.2709 23.2708 14.5625 23.2083C14.6355 23.1979 14.7084 23.1666 14.7917 23.1562C15.0417 23.0937 15.3021 23.0416 15.5417 22.9583C15.625 22.9271 15.7084 22.8958 15.7917 22.875C16.0209 22.7916 16.2605 22.7187 16.4792 22.625C16.5625 22.5937 16.6459 22.5521 16.7292 22.5104C16.948 22.4166 17.1667 22.3125 17.3855 22.1979C17.4688 22.1562 17.5417 22.1041 17.6146 22.0625C17.823 21.9375 18.0313 21.8229 18.2396 21.6875C18.3125 21.6458 18.375 21.5937 18.448 21.5416C18.6563 21.3958 18.8542 21.25 19.0417 21.0937C19.1042 21.0416 19.1563 20.9896 19.2188 20.9479C19.3334 20.8541 19.448 20.7604 19.5521 20.6666C19.5521 20.6562 19.5521 20.6562 19.5417 20.6458C21.6146 18.7396 22.9167 16.0208 22.9167 13ZM17.6459 18.1771C14.823 16.2812 10.198 16.2812 7.35421 18.1771C6.89587 18.4791 6.52087 18.8333 6.20837 19.2187C4.62504 17.6146 3.64587 15.4166 3.64587 13C3.64587 8.11456 7.61462 4.14581 12.5 4.14581C17.3855 4.14581 21.3542 8.11456 21.3542 13C21.3542 15.4166 20.375 17.6146 18.7917 19.2187C18.4896 18.8333 18.1042 18.4791 17.6459 18.1771Z" fill="#292D32"/>
<path d="M12.5 7.71844C10.3438 7.71844 8.59375 9.46844 8.59375 11.6247C8.59375 13.7393 10.25 15.458 12.4479 15.5205C12.4792 15.5205 12.5208 15.5205 12.5417 15.5205C12.5625 15.5205 12.5937 15.5205 12.6146 15.5205C12.625 15.5205 12.6354 15.5205 12.6354 15.5205C14.7396 15.4476 16.3958 13.7393 16.4062 11.6247C16.4062 9.46844 14.6562 7.71844 12.5 7.71844Z" fill="#292D32"/>
</svg>